<?xml version="1.0" encoding="UTF-8" standalone="no"?>
<!-- Created with Inkscape (http://www.inkscape.org/) -->

<svg
   xmlns:dc="http://purl.org/dc/elements/1.1/"
   xmlns:cc="http://creativecommons.org/ns#"
   xmlns:rdf="http://www.w3.org/1999/02/22-rdf-syntax-ns#"
   xmlns:svg="http://www.w3.org/2000/svg"
   xmlns="http://www.w3.org/2000/svg"
   xmlns:sodipodi="http://sodipodi.sourceforge.net/DTD/sodipodi-0.dtd"
   xmlns:inkscape="http://www.inkscape.org/namespaces/inkscape"
   version="1.1"
   width="542"
   height="531"
   id="svg3381"
   inkscape:version="0.48.5 r10040"
   sodipodi:docname="star_trek_24.svg">
  <sodipodi:namedview
     pagecolor="#ffffff"
     bordercolor="#666666"
     borderopacity="1"
     objecttolerance="10"
     gridtolerance="10"
     guidetolerance="10"
     inkscape:pageopacity="0"
     inkscape:pageshadow="2"
     inkscape:window-width="640"
     inkscape:window-height="480"
     id="namedview9"
     showgrid="false"
     inkscape:zoom="0.44444444"
     inkscape:cx="271"
     inkscape:cy="264.375"
     inkscape:window-x="0"
     inkscape:window-y="0"
     inkscape:window-maximized="0"
     inkscape:current-layer="svg3381" />
  <metadata
     id="metadata3387">
    <rdf:RDF>
      <cc:Work
         rdf:about="">
        <dc:format>image/svg+xml</dc:format>
        <dc:type
           rdf:resource="http://purl.org/dc/dcmitype/StillImage" />
        <dc:title />
      </cc:Work>
    </rdf:RDF>
  </metadata>
  <defs
     id="defs3385" />
  <g
     id="g3391">
    <path
       d="M 0,265.5 0,0 271,0 542,0 542,265.5 542,531 271,531 0,531 0,265.5 z"
       id="path3397"
       style="fill:#e2e2e2"
       inkscape:connector-curvature="0" />
    <path
       d="M 0,265.5 0,0 271,0 542,0 542,265.5 542,531 271,531 0,531 0,265.5 z m 415.52168,187.61169 c 14.82398,-3.05961 30.95262,-10.38524 41.97832,-19.06656 7.03445,-5.53872 17.58141,-16.35599 22.11646,-22.6833 5.89605,-8.22617 13.78739,-25.04451 16.31251,-34.76587 9.73597,-37.48222 -0.35858,-74.99315 -27.50252,-102.19828 -13.6617,-13.69249 -27.31486,-21.68094 -47.92645,-28.04169 -8.51753,-2.62852 -10.01854,-2.77613 -28,-2.75353 -17.80672,0.0224 -19.55898,0.1951 -27.90039,2.74992 -35.10607,10.75235 -60.57839,34.78933 -72.21696,68.14762 l -3.14007,9 -4.37129,0.0444 c -2.40421,0.0244 -13.85041,0.41634 -25.436,0.87094 l -21.06471,0.82655 -19.43529,-19.69017 c -10.68941,-10.8296 -19.5874,-20.11535 -19.77331,-20.63501 -0.20896,-0.58406 12.00956,-0.844 32,-0.68076 30.63141,0.25012 32.54884,0.15851 36.33285,-1.73594 7.59405,-3.80195 7.05115,-11.44229 -1.03034,-14.5 -3.27429,-1.23886 -9.36145,-1.45358 -34.96449,-1.23334 -17.05,0.14667 -63.9599,-0.23974 -104.24421,-0.85867 l -73.244217,-1.12534 -3.388842,2.97545 c -1.863864,1.63649 -5.040118,3.28522 -7.058343,3.66384 -3.800013,0.71289 -5.592849,2.9496 -3.800727,4.74172 0.566074,0.56608 4.338327,1.66905 8.382783,2.45107 17.28199,3.34154 32.841913,4.45839 67.554666,4.84892 l 35.2011,0.39602 17.7989,13.10305 c 9.78939,7.20668 23.35295,17.1867 30.14125,22.17781 6.7883,4.99111 11.9633,9.45273 11.5,9.91471 -0.4633,0.46197 -9.39236,1.56161 -19.84236,2.44364 -10.45,0.88203 -20.46747,2.06715 -22.26104,2.6336 -7.72185,2.43874 -11.68317,14.06603 -7.07808,20.77557 4.62727,6.74185 5.51344,7.02119 28.89619,9.10862 11.79361,1.05284 21.55543,1.92979 21.69293,1.94879 1.67195,0.23099 -2.34745,3.63712 -16,13.55876 -8.9375,6.49509 -19.4,14.11547 -23.25,16.93417 -21.83629,15.98699 -19.15808,14.52375 -26.93774,14.71742 -3.88424,0.0967 -17.41226,0.26751 -30.06226,0.37957 -12.65,0.11207 -30.147447,0.72393 -38.883216,1.35969 -15.341,1.11648 -36.290478,4.4277 -37.899567,5.99032 -1.737,1.68683 0.698978,3.99497 5.408653,5.12481 3.351087,0.80391 5.503452,2.00063 6.595306,3.66701 l 1.620799,2.47366 50.079015,-0.33544 C 129.96444,429.65094 177.025,429.7162 207,429.98043 l 54.5,0.48044 5,-2.48044 c 4.26362,-2.11512 5.04564,-2.95227 5.30991,-5.68422 0.48565,-5.02055 -1.24902,-7.07198 -7.58387,-8.96874 -4.93672,-1.47813 -9.7581,-1.6804 -34.97604,-1.46736 -16.0875,0.13591 -29.23195,-0.11451 -29.2099,-0.5565 0.0221,-0.44199 8.95379,-9.96773 19.8483,-21.16831 l 19.8082,-20.3647 4.9017,0.64708 c 8.19352,1.08165 29.44542,2.53556 37.41419,2.55963 l 7.51249,0.0227 1.92146,6.75 c 3.91665,13.75903 13.34412,29.92945 24.23425,41.56766 16.76763,17.91945 34.694,27.50092 61.81931,33.0418 6.14519,1.25527 29.62811,0.48463 38.02168,-1.24777 z m 40.25974,-56.37285 c -4.79521,-2.88136 -8.7184,-5.68884 -8.71819,-6.23884 2.1e-4,-0.55 0.61832,-1.81505 1.37359,-2.81123 1.2389,-1.63407 1.9795,-1.70128 7.57203,-0.68717 3.40935,0.61824 6.4261,0.89678 6.70389,0.619 0.27778,-0.27779 -1.79394,-1.91966 -4.60384,-3.64861 -5.39667,-3.32061 -5.89416,-4.0754 -3.82044,-5.79643 0.96353,-0.79965 3.61906,0.42769 10.53009,4.86682 9.13089,5.86502 9.22317,5.96431 7.70141,8.28681 -1.40058,2.13756 -1.96992,2.27992 -6.28009,1.57035 -9.47428,-1.55974 -10.25214,-1.14456 -4.46691,2.38418 4.82368,2.94223 6.33847,5.53214 3.72704,6.37225 -0.55,0.17694 -4.92336,-2.03577 -9.71858,-4.91713 z m 9.45255,-18.64317 c -7.83827,-2.52912 -8.94327,-3.9946 -7.39027,-9.80111 1.60535,-6.00222 2.71773,-7.29456 6.27874,-7.29456 2.21089,0 2.87756,0.46336 2.87756,2 0,1.1 -0.6199,2 -1.37756,2 -1.84127,0 -3.52508,2.14873 -3.85419,4.91838 -0.23173,1.95006 0.53922,2.51064 5.66207,4.1171 3.26167,1.02282 6.24932,1.66251 6.63922,1.42154 1.33222,-0.82335 2.04516,-5.74232 0.98582,-6.80166 -2.56504,-2.56504 -0.41298,-5.9895 2.44464,-3.89005 3.08337,2.26532 3.42967,3.818 1.94891,8.73818 -0.80993,2.69122 -2.02978,5.247 -2.71076,5.6795 -1.84324,1.17069 -5.60929,0.81474 -11.50418,-1.08732 z M 466,357.268 c -4.07205,-0.74867 -5,-2.18429 -5,-7.73546 0,-3.78954 0.50179,-5.67668 1.82874,-6.87755 C 465.59337,340.15303 468,340.54629 468,343.5 c 0,1.55556 -0.56667,2.5 -1.5,2.5 -1.0513,0 -1.5,1.06063 -1.5,3.54569 l 0,3.54569 6.75,-0.29569 c 6.49276,-0.28442 6.76181,-0.39793 7.05993,-2.97843 0.21834,-1.88992 -0.29883,-3.00854 -1.75,-3.78519 -4.32202,-2.31307 -1.37383,-5.86567 3.0468,-3.67141 2.00483,0.99513 2.44294,2.05384 2.69932,6.52296 0.42448,7.39946 -1.28422,9.16097 -8.71104,8.9802 C 471.01776,357.78892 467.375,357.5208 466,357.268 z m 2.38404,-22.70959 c -0.88065,-2.29495 0.01,-5.05841 1.62966,-5.05841 0.94591,0 1.60023,1.18164 1.79966,3.25 0.23517,2.43903 -0.0846,3.25 -1.28139,3.25 -0.87711,0 -1.84367,-0.64871 -2.14793,-1.44159 z m -11.90796,-8.63377 c -0.36228,-1.14145 -0.38557,-2.34848 -0.0518,-2.68229 C 457.33736,322.32931 473.99965,316 475.49024,316 c 0.71268,0 1.56207,0.69393 1.88753,1.54207 0.60356,1.57285 -3.04084,3.5689 -11.69778,6.40692 -2.10101,0.68878 -4.06165,1.88203 -4.35699,2.65167 -0.81667,2.12821 -4.10234,1.66995 -4.84692,-0.67602 z m -4.5243,-10.10142 c -4.47482,-6.1088 -5.54163,-8.63337 -4.21067,-9.96433 0.94061,-0.94061 16.55657,-4.7086 19.97371,-4.81947 0.66815,-0.0217 1.66792,0.80723 2.22173,1.84201 0.92507,1.72853 0.27776,2.02306 -7.96482,3.62406 -4.93445,0.95844 -8.97173,1.98476 -8.97173,2.28071 0,0.29595 1.11604,2.44246 2.48008,4.77003 2.10972,3.59996 2.26792,4.40803 1.05932,5.41107 -1.15287,0.9568 -2.01792,0.36395 -4.58762,-3.14408 z m -13.24883,-16.61538 c -2.03662,-2.08569 -3.69734,-4.67319 -3.69048,-5.75 C 435.03037,290.64679 445.67415,280 448.4665,280 451.40354,280 458,286.24623 458,289.02734 458,291.93122 447.32981,303 444.53049,303 c -1.16853,0 -3.79092,-1.70647 -5.82754,-3.79216 z m 10.68069,-5.21072 c 1.989,-2.20159 3.61636,-4.31008 3.61636,-4.68555 0,-0.37547 -0.98661,-1.73286 -2.19246,-3.01644 l -2.19247,-2.33377 -4.30753,4.22753 c -4.80269,4.71348 -5.01974,5.36666 -2.65255,7.98237 2.40573,2.6583 3.68895,2.29732 7.72865,-2.17414 z m -20.64422,-2.12307 C 427.78274,291.33866 427,290.41612 427,289.82395 427,287.80575 437.26534,272 438.57609,272 c 2.85421,0 2.40616,2.38159 -1.65411,8.79231 -2.33659,3.68923 -4.20515,7.46518 -4.15234,8.39099 0.14099,2.47179 -1.93946,3.86079 -4.03022,2.69075 z"
       id="path3395"
       style="fill:#f2ac40"
       inkscape:connector-curvature="0" />
    <path
       d="M 0,265.5 0,0 271,0 542,0 542,265.5 542,531 271,531 0,531 0,265.5 z m 406.02623,189.45912 c 41.39225,-5.08445 75.78971,-33.32049 88.37871,-72.54794 8.7659,-27.31461 6.88701,-54.86391 -5.45002,-79.91118 -6.0163,-12.2146 -12.32421,-20.72126 -22.75509,-30.68687 C 436.98418,243.90067 392.59044,234.71499 355.94136,248.99912 324.77701,261.14557 302.87327,283.76158 292.01913,315 l -2.60596,7.5 -8.45658,0.62213 c -4.65113,0.34217 -16.09769,0.94015 -25.43681,1.32883 l -16.98022,0.70671 -19.26978,-19.57257 C 208.6714,294.8202 200,285.56413 200,285.01607 c 0,-0.65326 9.38552,-0.77573 27.25,-0.35556 14.9875,0.3525 29.81479,0.31854 32.94954,-0.0754 7.5589,-0.95006 12.19562,-4.06389 12.62198,-8.4764 0.49609,-5.13415 -2.60766,-7.74511 -10.67779,-8.98245 -4.02651,-0.61736 -46.71027,-1.19308 -108.35144,-1.46144 l -101.707718,-0.44279 -1.492097,2.27723 c -0.964218,1.47158 -3.298411,2.71056 -6.597799,3.50207 -4.655209,1.11676 -5.078745,1.45401 -4.800189,3.82217 0.272629,2.31778 0.962202,2.72966 6.406597,3.82672 16.651763,3.35537 33.659143,4.60867 68.966526,5.08226 l 36.0676,0.4838 14.59022,10.64188 c 43.44184,31.68585 45.85064,33.56961 43.86526,34.30405 -1.05645,0.3908 -10.62153,1.42678 -21.25575,2.30218 -21.07103,1.73454 -22.19186,2.09707 -26.67401,8.62761 -1.8959,2.76234 -2.26173,4.37274 -1.93086,8.49968 0.52298,6.52319 3.52398,10.78245 9.03257,12.81978 3.1617,1.16934 34.43667,4.58859 41.97059,4.58859 2.68485,0 -1.89712,3.83297 -23.48323,19.64451 -13.3375,9.76953 -26.6871,19.47115 -29.66578,21.55914 l -5.41579,3.7963 -25.08421,0.008 c -39.600509,0.0133 -84.046526,4.05391 -87.992073,7.99945 -1.805452,1.80546 0.683063,4.21375 5.659857,5.47741 2.562281,0.65059 5.466286,2.13475 6.453345,3.29813 l 1.794651,2.11524 105,0.25644 c 102.45298,0.25022 105.09703,0.209 109,-1.69932 5.14078,-2.51352 7.13627,-6.35592 5.29546,-10.19664 -3.01728,-6.29534 -12.3403,-7.7156 -45.54546,-6.93838 -13.8875,0.32507 -25.25,0.22659 -25.25,-0.21883 0,-1.12026 2.79547,-4.1207 21.87049,-23.47409 L 239.5,370.75562 l 10,0.74724 c 5.5,0.41098 16.65843,1.02847 24.79651,1.37219 l 14.79651,0.62495 3.01214,9 c 16.08841,48.07077 64.06118,78.58369 113.92107,72.45912 z m 49.72187,-58.58686 c -7.6599,-4.81083 -8.62621,-5.73149 -7.74462,-7.37877 1.52909,-2.85713 2.01682,-2.9347 9.52218,-1.5146 3.83589,0.7258 7.13599,1.16582 7.33356,0.97782 0.19757,-0.188 -2.16493,-1.9565 -5.25,-3.92999 C 454.56305,381.29872 452.26619,378 455.06474,378 457.00333,378 473,388.2857 473,389.53219 c 0,3.0063 -2.8642,3.78597 -9.72916,2.64841 -3.67299,-0.60864 -6.84882,-0.93595 -7.05741,-0.72737 -0.20858,0.20859 2.16551,2.0071 5.27577,3.99671 5.10198,3.2637 6.52778,5.49252 3.9483,6.17202 -0.51563,0.13583 -4.87585,-2.22654 -9.6894,-5.2497 z m 9.52094,-18.49597 c -7.59615,-2.36094 -8.75656,-4.05454 -7.14989,-10.4352 1.20973,-4.80425 4.20108,-7.29966 7.31708,-6.10393 2.2888,0.87829 1.90924,2.58099 -0.80541,3.6131 -2.4175,0.91914 -4.20908,5.79217 -2.70261,7.35102 0.42589,0.44071 3.20378,1.44739 6.17307,2.23709 4.91342,1.30674 5.51108,1.28494 6.64872,-0.24241 C 476.24331,372.29108 476.4137,368 475,368 c -1.24986,0 -1.32018,-2.68408 -0.0902,-3.44423 0.50036,-0.30924 1.60823,-0.29423 2.46193,0.0334 5.18614,1.9901 1.51883,15.61881 -4.12169,15.31732 -0.9625,-0.0514 -4.55393,-0.96502 -7.98096,-2.03017 z M 462.2,355.8 c -0.66,-0.66 -1.2,-3.495 -1.2,-6.3 0,-5.59339 1.19481,-7.5 4.7,-7.5 2.60444,0 3.14223,2.46283 0.73916,3.38497 -1.11706,0.42866 -1.47247,1.66746 -1.25,4.35699 L 465.5,353.5 l 6.5,0 6.5,0 0.31084,-3.75804 c 0.22247,-2.68953 -0.13294,-3.92833 -1.25,-4.35699 -2.12657,-0.81604 -1.98122,-3.39261 0.18916,-3.35317 3.4766,0.0632 5.25,2.48631 5.25,7.17346 0,6.5778 -1.81551,7.79474 -11.62874,7.79474 -4.86654,0 -8.43865,-0.46739 -9.17126,-1.2 z m 6.4875,-20.44583 C 468.30937,334.97604 468,333.61667 468,332.33333 468,330.64167 468.56827,330 470.06642,330 c 1.65208,0 2.00298,0.53594 1.75,2.67288 -0.31655,2.67397 -1.83501,3.9752 -3.12892,2.68129 z M 457,327.08179 c 0,-0.50502 -0.24664,-1.56095 -0.54809,-2.34651 -0.40253,-1.04897 2.01497,-2.3974 9.10275,-5.0773 5.30796,-2.00696 10.0546,-3.39947 10.54809,-3.09448 2.40872,1.48867 0.18709,3.33755 -7.02878,5.84947 -4.35932,1.51753 -8.1702,3.39541 -8.46862,4.17308 C 460.00928,328.13939 457,328.55316 457,327.08179 z m -6.42292,-13.8005 C 448.60968,310.136 447,307.26559 447,306.90261 c 0,-1.06778 4.94875,-2.67794 13.34837,-4.34314 8.06175,-1.59822 9.65163,-1.44554 9.65163,0.92687 0,0.92662 -2.38293,1.75271 -7.38224,2.55918 -10.17832,1.64194 -10.54519,1.95961 -7.83409,6.78335 2.57367,4.57924 2.77834,6.17113 0.79341,6.17113 -0.78261,0 -3.03261,-2.57342 -5,-5.71871 z M 439.5348,299.89641 c -5.09396,-4.47255 -4.77636,-7.37677 1.56554,-14.31582 3.23774,-3.5426 5.90504,-5.58059 7.30384,-5.58059 2.94783,0 8.59592,5.94521 8.59544,9.04761 C 456.99917,291.94296 447.27165,303 444.72489,303 c -0.91041,0 -3.24596,-1.39662 -5.19009,-3.10359 z m 10.80458,-6.44668 3.83939,-4.36187 -2.54393,-2.54393 C 450.23568,285.14477 448.6909,284 448.20199,284 c -0.4889,0 -2.7332,2.18721 -4.98733,4.86048 -3.83057,4.54283 -4.00048,5.00029 -2.59983,7 2.27469,3.24758 5.43324,2.46457 9.72455,-2.41075 z m -22.25208,-2.37461 c -1.13923,-0.72115 -0.37093,-2.65397 3.96896,-9.98469 2.95991,-4.99974 5.74725,-9.09043 6.19408,-9.09043 2.29182,0 1.49597,3.57736 -2.16781,9.74442 -2.24539,3.77955 -4.08253,7.63324 -4.08253,8.56375 0,1.8444 -1.68793,2.17526 -3.9127,0.76695 z M 80.090069,161.65006 c 1.974538,-0.37437 4.674538,-1.83407 6,-3.24377 2.37768,-2.52879 2.413988,-2.86314 2.713108,-24.98469 0.298112,-22.04695 0.26887,-22.4216 -1.75,-22.4216 -2.511309,0 -2.581662,-0.75951 -0.303177,-3.27305 1.462439,-1.61331 1.80431,-4.33754 2.080511,-16.578744 C 89.220082,73.882482 88.38256,70.017588 83.612691,67.069647 80.557856,65.181655 78.716358,65 62.631966,65 L 45,65 l 0,48.41667 c 0,32.07696 0.344781,48.52916 1.021629,48.75 1.865609,0.6087 30.416714,0.17576 34.06844,-0.51661 z M 61,134.62102 l 0,-12.47441 5.620843,-2.5733 c 3.091464,-1.41532 5.903964,-2.57363 6.25,-2.57403 0.346036,-3.9e-4 0.534961,6.63711 0.419833,14.75 L 73.081351,146.5 67.040676,146.79772 61,147.09543 61,134.62102 z M 61,92.567388 61,80 l 6,0 c 3.30303,0 6.020432,0.449495 6.045455,1 0.025,0.55 0.07644,4.9375 0.114314,9.75 l 0.06886,8.75 -3.864314,2.1416 C 60.684395,106.45199 61,106.79438 61,92.567388 z m 76.82153,68.528132 c 1.11285,-0.59559 2.95826,-2.27141 4.10092,-3.72406 2.0266,-2.5764 2.07755,-3.6457 2.07755,-43.60195 0,-39.178398 -0.0859,-41.081403 -1.97405,-43.733072 -3.20586,-4.502207 -6.40546,-5.229551 -21.40479,-4.865802 -13.13762,0.318602 -13.66746,0.415505 -16.21475,2.965554 -1.52691,1.528565 -2.98753,4.469693 -3.47632,7 -1.218955,6.310044 -1.136172,73.61451 0.0958,77.86381 2.39463,8.25975 6.62387,10.00072 23.12322,9.51871 6.40699,-0.18718 12.5596,-0.82761 13.67245,-1.42319 z M 117,113.70439 l 0,-33.295616 3.59373,-0.242025 C 128.54396,79.631329 128,77.141454 128,114.06739 L 128,147 l -5.5,0 -5.5,0 0,-33.29561 z M 176.75,162.07651 193,162 l 0,-7.5 0,-7.5 -10.5,0 -10.5,0 0,-41 0,-41 -8,0 -8,0 0,48.33333 c 0,26.58334 0.25568,48.58902 0.56818,48.90151 0.31249,0.3125 1.32499,0.42193 2.25,0.24318 0.925,-0.17875 8.99432,-0.35943 17.93182,-0.40151 z m 62.86006,-1.74058 c 5.03783,-3.30092 5.39443,-6.41698 5.3335,-46.60617 -0.0396,-26.107469 -0.41302,-38.265031 -1.25,-40.695132 -0.68197,-1.980018 -2.64999,-4.444627 -4.59144,-5.75 C 235.88783,65.123446 234.76664,65 218.35212,65 L 201,65 l 0,48.42668 c 0,44.45799 0.13698,48.45317 1.67145,48.75 0.91929,0.17782 9.10698,0.16374 18.19485,-0.0313 12.29389,-0.26385 17.09176,-0.72702 18.74376,-1.80945 z M 217,113.71792 l 0,-33.282071 5.5,-0.124767 c 5.7751,-0.131007 5.68123,-0.215407 5.77115,5.188918 0.0183,1.1 -0.0352,15.3875 -0.11893,31.75 L 228,147 l -5.5,0 -5.5,0 0,-33.28208 z m 75.68657,47.97579 c 0.51652,-0.31922 0.89515,-3.6434 0.84141,-7.38706 L 293.43027,147.5 282.71514,147.21617 272,146.93234 272,105.96617 272,65 l -8,0 -8,0 0,48.41667 c 0,31.33116 0.35226,48.53429 0.99823,48.75 1.72084,0.57463 34.70048,0.13757 35.68834,-0.47296 z m 46.62902,-1.4411 c 5.55708,-3.23693 5.73352,-4.92561 5.44506,-52.11391 L 344.5,65.5 l -8,0 -8,0 -0.5,17.779847 -0.5,17.779843 -4.35207,2.47016 C 320.75429,104.88843 318.39179,106 317.89793,106 317.39656,106 317,96.946415 317,85.5 l 0,-20.5 -8,0 -8,0 0,33.567388 c 0,32.614912 0.0543,33.550142 1.91488,32.959632 1.05318,-0.33427 6.86525,-3.28959 12.91571,-6.56739 C 321.88104,121.68183 327.09435,119 327.41571,119 327.73707,119 328,125.3 328,133 l 0,14 -5.5,0 -5.5,0 0,-4.5 c 0,-2.475 -0.46538,-4.5 -1.03418,-4.5 -0.5688,0 -4.16116,1.6875 -7.98302,3.75 l -6.94885,3.75 -0.017,4.52749 c -0.0142,3.79352 0.86478,6.20536 3.57703,9.81477 2.58964,3.44626 28.97428,3.75809 34.72159,0.41035 z M 434.25,162.02884 C 435.07924,161.99695 435.31095,100 434.48183,100 c -1.26718,0 -21.05816,10.36598 -21.71652,11.37453 -0.40408,0.61901 -0.74158,4.66111 -0.75,8.98246 -0.0138,7.09375 0.15469,7.787 1.73469,7.13655 5.52625,-2.27506 5.34589,-2.58413 5.03638,8.63032 L 418.5,146.5 l -5.75,0.2999 -5.75,0.29991 0,-33.00459 0,-33.004594 3.25,-0.501604 c 1.7875,-0.275882 4.375,-0.372401 5.75,-0.214488 2.45177,0.281577 2.50552,0.473649 2.78621,9.956291 0.15742,5.318046 0.60742,9.64826 1,9.622698 0.39259,-0.02556 3.86379,-1.776226 7.71379,-3.890364 l 7,-3.843888 0.28917,-8.62596 c 0.33209,-9.906213 -1.10946,-14.169868 -5.70962,-16.887248 -4.02299,-2.376437 -26.66974,-2.468898 -31.60067,-0.129017 -6.21904,2.951129 -6.47957,4.830391 -6.4733,46.693194 0.003,21.73531 0.42177,38.72806 1.00561,40.82985 1.3248,4.76924 4.14556,7.15286 9.27479,7.83746 3.16755,0.42278 22.92143,0.47748 32.96402,0.0913 z m 50.58885,-1.44551 C 490.31207,157.75302 490.5,156.17344 490.5,113 c 0,-43.06444 0.0765,-42.458162 -5.81382,-46.049773 -2.72352,-1.660646 -5.0739,-1.942751 -16.18618,-1.942751 -14.36292,0 -18.53884,1.334283 -20.52493,6.558083 C 447.40059,73.076562 447,90.576065 447,114.16081 c 0,35.79307 0.17896,40.33356 1.69057,42.89251 2.82298,4.77892 6.33208,5.59612 22.53913,5.2489 7.14697,-0.15311 11.69117,-0.72706 13.60915,-1.71889 z M 463,113.44774 l 0,-33.552259 5.25,0.302259 5.25,0.30226 0.26348,33.25 0.26348,33.25 -5.51348,0 -5.51348,0 0,-33.55226 z"
       id="path3393"
       style="fill:#191817"
       inkscape:connector-curvature="0" />
  </g>
</svg>
